<svg width="24" height="24" viewBox="0 0 24 24" fill="none" xmlns="http://www.w3.org/2000/svg">
<path d="M5.79673 0H5.14379C5.06047 0 4.98146 0.0161599 4.90491 0.039122C4.52245 0.153618 4.23975 0.530526 4.23975 0.982651V1.39754V2.4595V3.012C4.23975 3.11466 4.25828 3.21166 4.28515 3.30453C4.40024 3.70346 4.73892 3.99465 5.14379 3.99465H5.79673C6.29611 3.99465 6.70077 3.55476 6.70077 3.012V2.4595V1.39754V0.982651C6.70077 0.439897 6.29611 0 5.79673 0Z" fill="#343A40"/>
<path d="M18.6488 0H17.9958C17.4965 0 17.0918 0.439897 17.0918 0.982651V1.39754V2.4595V3.012C17.0918 3.55476 17.4965 3.99465 17.9958 3.99465H18.6488C19.1482 3.99465 19.5528 3.55476 19.5528 3.012V2.4595V1.39754V0.982651C19.5526 0.439897 19.148 0 18.6488 0Z" fill="#343A40"/>
<path d="M21.9839 2.4595H20.3672V3.012C20.3672 3.9685 19.5961 4.74662 18.6485 4.74662H17.9956C17.048 4.74662 16.2769 3.9685 16.2769 3.012V2.4595H7.51556V3.012C7.51556 3.9685 6.7445 4.74662 5.79688 4.74662H5.14394C4.19629 4.74662 3.42527 3.9685 3.42527 3.012V2.4595H2.01661C1.1193 2.4595 0.391602 3.08926 0.391602 3.86569V22.5938C0.391602 23.3717 1.11925 24 2.01661 24H21.9836C22.8818 24 23.6086 23.3716 23.6086 22.5938V3.86588C23.6088 3.08946 22.882 2.4595 21.9839 2.4595ZM21.48 21.9359L2.46117 21.9291V6.83031H21.48V21.9359Z" fill="#343A40"/>
<path d="M14.0368 10.4689H19.0387C19.4728 10.4689 19.824 10.0687 19.824 9.57404C19.824 9.07942 19.4727 8.67919 19.0387 8.67919H14.0368C13.6026 8.67919 13.2515 9.07942 13.2515 9.57404C13.2515 10.0685 13.6026 10.4689 14.0368 10.4689Z" fill="#343A40"/>
<path d="M14.0368 13.7012H19.0387C19.4728 13.7012 19.824 13.301 19.824 12.8064C19.824 12.3118 19.4727 11.9116 19.0387 11.9116H14.0368C13.6026 11.9116 13.2515 12.3118 13.2515 12.8064C13.2515 13.301 13.6026 13.7012 14.0368 13.7012Z" fill="#343A40"/>
<path d="M14.0368 16.9336H19.0387C19.4728 16.9336 19.824 16.5333 19.824 16.0387C19.824 15.5441 19.4727 15.1439 19.0387 15.1439H14.0368C13.6026 15.1439 13.2515 15.5441 13.2515 16.0387C13.2515 16.5333 13.6026 16.9336 14.0368 16.9336Z" fill="#343A40"/>
<path d="M14.0368 20.1661H19.0387C19.4728 20.1661 19.824 19.7659 19.824 19.2713C19.824 18.7766 19.4727 18.3764 19.0387 18.3764H14.0368C13.6026 18.3764 13.2515 18.7766 13.2515 19.2713C13.2515 19.7659 13.6026 20.1661 14.0368 20.1661Z" fill="#343A40"/>
<path d="M5.1779 10.4689H10.1798C10.6139 10.4689 10.9651 10.0687 10.9651 9.57404C10.9651 9.07942 10.6137 8.67919 10.1798 8.67919H5.1779C4.74369 8.67919 4.39258 9.07942 4.39258 9.57404C4.39262 10.0685 4.74369 10.4689 5.1779 10.4689Z" fill="#343A40"/>
<path d="M5.1779 13.7012H10.1798C10.6139 13.7012 10.9651 13.301 10.9651 12.8064C10.9651 12.3118 10.6137 11.9116 10.1798 11.9116H5.1779C4.74369 11.9116 4.39258 12.3118 4.39258 12.8064C4.39262 13.301 4.74369 13.7012 5.1779 13.7012Z" fill="#343A40"/>
<path d="M5.1779 16.9336H10.1798C10.6139 16.9336 10.9651 16.5333 10.9651 16.0387C10.9651 15.5441 10.6137 15.1439 10.1798 15.1439H5.1779C4.74369 15.1439 4.39258 15.5441 4.39258 16.0387C4.39258 16.5333 4.74369 16.9336 5.1779 16.9336Z" fill="#343A40"/>
<path d="M5.1779 20.1661H10.1798C10.6139 20.1661 10.9651 19.7659 10.9651 19.2713C10.9651 18.7766 10.6137 18.3764 10.1798 18.3764H5.1779C4.74369 18.3764 4.39258 18.7766 4.39258 19.2713C4.39262 19.7659 4.74369 20.1661 5.1779 20.1661Z" fill="#343A40"/>
</svg>
